<svg width="27" height="26" viewBox="0 0 27 26" fill="none" xmlns="http://www.w3.org/2000/svg">
<g clip-path="url(#clip0_36_535)">
<path fill-rule="evenodd" clip-rule="evenodd" d="M13.5483 0C20.7283 0 26.5483 5.82 26.5483 13C26.5483 20.18 20.7283 26 13.5483 26C6.36834 26 0.54834 20.18 0.54834 13C0.54834 5.82 6.36834 0 13.5483 0ZM12.2583 10.023V11.404H11.1103L11.1123 13.491L12.4883 13.475V18.078H14.5553V13.475H16.1623L16.3923 11.405H14.5553V10.254C14.5553 9.926 14.6313 9.794 15.0153 9.794H16.3923L16.3683 7.82C16.3683 7.82 15.8063 7.719 14.9283 7.719C13.0023 7.719 12.2583 8.879 12.2583 10.023Z" fill="#9D9B9B"/>
</g>
<defs>
<clipPath id="clip0_36_535">
<rect width="26" height="26" fill="white" transform="translate(0.54834)"/>
</clipPath>
</defs>
</svg>
