<svg width="26" height="27" viewBox="0 0 26 27" fill="none" xmlns="http://www.w3.org/2000/svg">
<path d="M18.833 2.39282C21.5944 2.39282 23.833 4.6314 23.833 7.39282V19.0588C23.833 21.8203 21.5944 24.0588 18.833 24.0588H7.16699C4.40557 24.0588 2.16699 21.8203 2.16699 19.0588V7.39282C2.16699 4.6314 4.40557 2.39282 7.16699 2.39282H18.833ZM13 7.80884C10.0085 7.80884 7.58301 10.2343 7.58301 13.2258C7.58301 16.2174 10.0085 18.6428 13 18.6428C15.9915 18.6428 18.417 16.2174 18.417 13.2258C18.417 10.2343 15.9915 7.80884 13 7.80884ZM13 9.97583C14.7949 9.97583 16.25 11.4309 16.25 13.2258C16.25 15.0208 14.7949 16.4758 13 16.4758C11.2051 16.4758 9.75 15.0208 9.75 13.2258C9.75 11.4309 11.2051 9.97583 13 9.97583ZM19.5 5.64282C18.9017 5.64282 18.417 6.12752 18.417 6.72583C18.417 7.32414 18.9017 7.80884 19.5 7.80884C20.0983 7.80884 20.583 7.32414 20.583 6.72583C20.583 6.12752 20.0983 5.64282 19.5 5.64282Z" fill="#9D9B9B"/>
</svg>
