<svg width="308" height="61" viewBox="0 0 308 61" fill="none" xmlns="http://www.w3.org/2000/svg">
<mask id="mask0_341_1044" style="mask-type:luminance" maskUnits="userSpaceOnUse" x="10" y="10" width="51" height="28">
<path d="M10 10.0267H60.7315V37.7072H10V10.0267Z" fill="white"/>
</mask>
<g mask="url(#mask0_341_1044)">
<mask id="mask1_341_1044" style="mask-type:luminance" maskUnits="userSpaceOnUse" x="10" y="10" width="51" height="28">
<path d="M58.9178 10.0267C58.4907 10.0267 57.9871 10.1736 57.6158 10.5742L43.9149 25.4707C43.5668 25.9351 42.8299 26.1858 42.1106 26.1858C41.2372 26.1858 40.4429 25.8698 39.9365 25.2363L27.8269 12.0741C26.6818 10.7418 25.0127 10.0267 23.2658 10.0267H11.8153C11.0974 10.0267 10.4383 10.4911 10.1476 11.2062C9.85549 11.988 10.0111 12.8515 10.5147 13.4226L31.0286 35.6391C32.1928 36.8839 33.7063 37.6004 35.3741 37.6004C37.0432 37.6004 38.5567 36.8839 39.7209 35.6391L60.1584 13.4226C60.8777 12.6215 60.8777 11.3545 60.1584 10.5742C59.8677 10.1736 59.3641 10.0267 58.9178 10.0267Z" fill="white"/>
</mask>
<g mask="url(#mask1_341_1044)">
<path d="M10 10.0267H60.7315V37.5989H10V10.0267Z" fill="white"/>
</g>
</g>
<mask id="mask2_341_1044" style="mask-type:luminance" maskUnits="userSpaceOnUse" x="35" y="44" width="9" height="5">
<path d="M35.7876 44.0762H43.2693V48.5165H35.7876V44.0762Z" fill="white"/>
</mask>
<g mask="url(#mask2_341_1044)">
<mask id="mask3_341_1044" style="mask-type:luminance" maskUnits="userSpaceOnUse" x="35" y="44" width="9" height="5">
<path d="M36.6939 45.0523V45.8089H42.0479C42.1271 45.8089 42.1967 45.7881 42.2649 45.7436C42.3332 45.6991 42.3659 45.6205 42.3659 45.4988V45.3979C42.3659 45.2703 42.3359 45.1813 42.2731 45.1279C42.2103 45.076 42.1326 45.0523 42.0398 45.0523H36.6939ZM42.4151 44.085C42.5215 44.085 42.6252 44.1072 42.7303 44.1517C42.8368 44.1962 42.9241 44.2615 43.0033 44.3446C43.0824 44.4277 43.1439 44.5285 43.1903 44.6487C43.2367 44.7704 43.2612 44.9039 43.2612 45.0523V45.8089C43.2612 45.9661 43.2367 46.1056 43.1903 46.2228C43.1439 46.3415 43.0797 46.4424 43.0033 46.5254C42.9269 46.6085 42.834 46.6693 42.7303 46.7109C42.628 46.7524 42.5215 46.7762 42.4151 46.7762H36.6939V48.5105H35.7959V44.085H42.4151Z" fill="white"/>
</mask>
<g mask="url(#mask3_341_1044)">
<path d="M34.4351 42.6046H127.099V49.9884H34.4351V42.6046Z" fill="white"/>
</g>
</g>
<mask id="mask4_341_1044" style="mask-type:luminance" maskUnits="userSpaceOnUse" x="44" y="44" width="8" height="5">
<path d="M44.1016 44.085H51.571V45.0523H44.1016V44.085ZM44.1016 45.0523H44.9996V45.8089H44.1016V45.0523ZM44.1016 45.8089H51.571V46.7762H44.1016V45.8089ZM44.1016 46.7762H44.9996V47.5402H44.1016V46.7762ZM44.1016 47.5402H51.571V48.5075H44.1016V47.5402Z" fill="white"/>
</mask>
<g mask="url(#mask4_341_1044)">
<path d="M34.4351 42.6046H127.099V49.9884H34.4351V42.6046Z" fill="white"/>
</g>
<mask id="mask5_341_1044" style="mask-type:luminance" maskUnits="userSpaceOnUse" x="52" y="44" width="8" height="5">
<path d="M52.3955 44.0762H59.9031V48.5165H52.3955V44.0762Z" fill="white"/>
</mask>
<g mask="url(#mask5_341_1044)">
<mask id="mask6_341_1044" style="mask-type:luminance" maskUnits="userSpaceOnUse" x="52" y="44" width="8" height="5">
<path d="M53.3077 45.0523V45.8089H58.6603C58.745 45.8089 58.8187 45.7881 58.8842 45.7495C58.9497 45.711 58.9824 45.6279 58.9824 45.5077V45.4068C58.9824 45.2792 58.9524 45.1873 58.8924 45.1338C58.8323 45.0819 58.7531 45.0523 58.6522 45.0523H53.3077ZM59.0288 44.085C59.1339 44.085 59.2376 44.1072 59.3441 44.1517C59.4505 44.1962 59.5379 44.2615 59.6157 44.3446C59.6948 44.4277 59.7576 44.5285 59.804 44.6487C59.8504 44.7704 59.875 44.9039 59.875 45.0523V45.8089C59.875 46.07 59.8149 46.2792 59.6948 46.4394C59.5747 46.5996 59.426 46.699 59.2458 46.7495L59.8832 48.5105H58.9715L58.2577 46.7762H53.3077V48.5105H52.4097V44.085H59.0288Z" fill="white"/>
</mask>
<g mask="url(#mask6_341_1044)">
<path d="M34.4351 42.6046H127.099V49.9884H34.4351V42.6046Z" fill="white"/>
</g>
</g>
<mask id="mask7_341_1044" style="mask-type:luminance" maskUnits="userSpaceOnUse" x="60" y="44" width="9" height="5">
<path d="M60.6987 44.0762H68.2064V48.5165H60.6987V44.0762Z" fill="white"/>
</mask>
<g mask="url(#mask7_341_1044)">
<mask id="mask8_341_1044" style="mask-type:luminance" maskUnits="userSpaceOnUse" x="60" y="44" width="9" height="5">
<path d="M60.7148 47.5402H66.9669C67.0515 47.5402 67.1238 47.5135 67.1893 47.4571C67.2549 47.4007 67.2876 47.3147 67.2876 47.193V47.1114C67.2876 46.9839 67.2603 46.8948 67.2085 46.8474C67.1566 46.7999 67.0788 46.7732 66.9778 46.7732H61.5528C61.3304 46.7732 61.1338 46.6901 60.966 46.5225C60.7967 46.3533 60.7148 46.1175 60.7148 45.8059V45.0523C60.7148 44.7407 60.7995 44.5048 60.966 44.3357C61.1311 44.1666 61.3304 44.085 61.5528 44.085H68.1829V45.0523H61.9227C61.823 45.0523 61.7466 45.076 61.692 45.119C61.6374 45.1635 61.6129 45.2525 61.6129 45.3801V45.4632C61.6129 45.5849 61.6456 45.6724 61.7111 45.7288C61.7766 45.7851 61.8503 45.8118 61.9336 45.8118H67.3449C67.5674 45.8118 67.7639 45.9009 67.9331 46.0759C68.101 46.2495 68.1856 46.4898 68.1856 46.7851V47.5432C68.1856 47.8532 68.101 48.0906 67.9331 48.2583C67.7639 48.4274 67.5674 48.5105 67.3449 48.5105H60.7148V47.5402Z" fill="white"/>
</mask>
<g mask="url(#mask8_341_1044)">
<path d="M34.4351 42.6046H127.099V49.9884H34.4351V42.6046Z" fill="white"/>
</g>
</g>
<mask id="mask9_341_1044" style="mask-type:luminance" maskUnits="userSpaceOnUse" x="69" y="44" width="8" height="5">
<path d="M69.002 44.0762H76.5096V48.5165H69.002V44.0762Z" fill="white"/>
</mask>
<g mask="url(#mask9_341_1044)">
<mask id="mask10_341_1044" style="mask-type:luminance" maskUnits="userSpaceOnUse" x="69" y="44" width="8" height="5">
<path d="M75.4941 47.4276C75.5583 47.3504 75.591 47.2525 75.591 47.1323V45.4633C75.591 45.3417 75.5637 45.2437 75.5132 45.1666C75.4614 45.0909 75.3822 45.0524 75.2812 45.0524H70.2302C70.1183 45.0524 70.0391 45.0909 69.99 45.1666C69.9409 45.2437 69.919 45.3417 69.919 45.4633V47.1323C69.919 47.2525 69.9463 47.3504 70.0036 47.4276C70.061 47.5047 70.1292 47.5433 70.2138 47.5433H75.273C75.3577 47.5433 75.4314 47.5047 75.4969 47.4276M75.9595 44.1518C76.0619 44.1993 76.152 44.2616 76.2311 44.3447C76.3103 44.4278 76.373 44.5287 76.4194 44.6488C76.4659 44.7705 76.4904 44.904 76.4904 45.0494V47.5403C76.4904 47.699 76.4659 47.8355 76.4194 47.9542C76.373 48.0729 76.3075 48.1738 76.2311 48.2554C76.1547 48.3385 76.0619 48.4008 75.9595 48.4423C75.8558 48.4839 75.7493 48.5076 75.6429 48.5076H69.8685C69.7566 48.5076 69.6502 48.4868 69.5492 48.4423C69.4482 48.3978 69.3595 48.3385 69.2803 48.2554C69.2011 48.1738 69.1384 48.0729 69.092 47.9542C69.0456 47.8355 69.021 47.6961 69.021 47.5403V45.0524C69.021 44.901 69.0456 44.7645 69.092 44.6399C69.1384 44.5168 69.2039 44.4159 69.2803 44.3358C69.3567 44.2557 69.4482 44.1904 69.5492 44.1489C69.6502 44.1073 69.7566 44.0865 69.8685 44.0865H75.6402C75.7466 44.0865 75.8503 44.1103 75.9568 44.1548" fill="white"/>
</mask>
<g mask="url(#mask10_341_1044)">
<path d="M34.4351 42.6046H127.099V49.9884H34.4351V42.6046Z" fill="white"/>
</g>
</g>
<mask id="mask11_341_1044" style="mask-type:luminance" maskUnits="userSpaceOnUse" x="77" y="44" width="8" height="5">
<path d="M77.3052 44.0762H84.8128V48.5165H77.3052V44.0762Z" fill="white"/>
</mask>
<g mask="url(#mask11_341_1044)">
<mask id="mask12_341_1044" style="mask-type:luminance" maskUnits="userSpaceOnUse" x="77" y="44" width="8" height="5">
<path d="M77.3286 44.085H78.2348L83.8986 47.4423V44.085H84.7967V48.5075H83.8905L78.2266 45.1516V48.5075H77.3286V44.085Z" fill="white"/>
</mask>
<g mask="url(#mask12_341_1044)">
<path d="M34.4351 42.6046H127.099V49.9884H34.4351V42.6046Z" fill="white"/>
</g>
</g>
<mask id="mask13_341_1044" style="mask-type:luminance" maskUnits="userSpaceOnUse" x="85" y="44" width="8" height="5">
<path d="M85.4229 44.0762H92.9046V48.5165H85.4229V44.0762Z" fill="white"/>
</mask>
<g mask="url(#mask13_341_1044)">
<mask id="mask14_341_1044" style="mask-type:luminance" maskUnits="userSpaceOnUse" x="85" y="44" width="8" height="5">
<path d="M89.168 45.0344L88.0434 46.5017H90.2912L89.168 45.0344ZM86.5408 48.5075H85.4326L88.7231 44.085H89.6143L92.902 48.5075H91.7938L90.9886 47.4393H87.346L86.5408 48.5075Z" fill="white"/>
</mask>
<g mask="url(#mask14_341_1044)">
<path d="M34.4351 42.6046H127.099V49.9884H34.4351V42.6046Z" fill="white"/>
</g>
</g>
<mask id="mask15_341_1044" style="mask-type:luminance" maskUnits="userSpaceOnUse" x="93" y="44" width="8" height="5">
<path d="M93.3555 44.0762H100.837V48.5165H93.3555V44.0762Z" fill="white"/>
</mask>
<g mask="url(#mask15_341_1044)">
<mask id="mask16_341_1044" style="mask-type:luminance" maskUnits="userSpaceOnUse" x="93" y="44" width="8" height="5">
<path d="M100.822 47.5402V48.5075H94.2026C94.0907 48.5075 93.9842 48.4867 93.8846 48.4422C93.7836 48.3977 93.6935 48.3384 93.6144 48.2553C93.5352 48.1737 93.4725 48.0728 93.426 47.9541C93.381 47.8354 93.3564 47.696 93.3564 47.5402V44.085H94.2545V47.1322C94.2545 47.2524 94.2872 47.3503 94.3527 47.4275C94.4169 47.5046 94.4906 47.5432 94.5752 47.5432L100.822 47.5402Z" fill="white"/>
</mask>
<g mask="url(#mask16_341_1044)">
<path d="M34.4351 42.6046H127.099V49.9884H34.4351V42.6046Z" fill="white"/>
</g>
</g>
<mask id="mask17_341_1044" style="mask-type:luminance" maskUnits="userSpaceOnUse" x="101" y="44" width="9" height="5">
<path d="M101.659 44.0762H109.14V48.5165H101.659V44.0762Z" fill="white"/>
</mask>
<g mask="url(#mask17_341_1044)">
<mask id="mask18_341_1044" style="mask-type:luminance" maskUnits="userSpaceOnUse" x="101" y="44" width="9" height="5">
<path d="M109.128 47.5402V48.5075H101.66V47.5402H104.94V45.0523H101.66V44.085H109.128V45.0523H105.84V47.5432L109.128 47.5402Z" fill="white"/>
</mask>
<g mask="url(#mask18_341_1044)">
<path d="M34.4351 42.6046H127.099V49.9884H34.4351V42.6046Z" fill="white"/>
</g>
</g>
<mask id="mask19_341_1044" style="mask-type:luminance" maskUnits="userSpaceOnUse" x="109" y="44" width="9" height="5">
<path d="M109.961 44.0762H117.443V48.5165H109.961V44.0762Z" fill="white"/>
</mask>
<g mask="url(#mask19_341_1044)">
<mask id="mask20_341_1044" style="mask-type:luminance" maskUnits="userSpaceOnUse" x="109" y="44" width="9" height="5">
<path d="M109.968 47.5402H116.22C116.305 47.5402 116.379 47.5135 116.444 47.4571C116.508 47.4007 116.538 47.3147 116.538 47.193V47.1114C116.538 46.9839 116.511 46.8948 116.459 46.8474C116.409 46.7999 116.329 46.7732 116.228 46.7732H110.806C110.584 46.7732 110.387 46.6901 110.219 46.5225C110.05 46.3533 109.968 46.1175 109.968 45.8059V45.0523C109.968 44.7407 110.053 44.5048 110.219 44.3357C110.385 44.1666 110.584 44.085 110.806 44.085H117.434V45.0523H111.175C111.074 45.0523 110.997 45.076 110.943 45.119C110.888 45.1635 110.864 45.2525 110.864 45.3801V45.4632C110.864 45.5849 110.896 45.6724 110.962 45.7288C111.027 45.7851 111.101 45.8118 111.186 45.8118H116.596C116.819 45.8118 117.015 45.9009 117.184 46.0759C117.353 46.2495 117.434 46.4898 117.434 46.7851V47.5432C117.434 47.8532 117.35 48.0906 117.184 48.2583C117.017 48.4274 116.819 48.5105 116.596 48.5105H109.968V47.5402Z" fill="white"/>
</mask>
<g mask="url(#mask20_341_1044)">
<path d="M34.4351 42.6046H127.099V49.9884H34.4351V42.6046Z" fill="white"/>
</g>
</g>
<mask id="mask21_341_1044" style="mask-type:luminance" maskUnits="userSpaceOnUse" x="118" y="44" width="8" height="5">
<path d="M118.276 44.085H125.744V45.0523H118.276V44.085ZM118.276 45.0523H119.171V45.8089H118.276V45.0523ZM118.276 45.8089H125.741V46.7762H118.276V45.8089ZM118.276 46.7762H119.171V47.5402H118.276V46.7762ZM118.276 47.5402H125.741V48.5075H118.276V47.5402Z" fill="white"/>
</mask>
<g mask="url(#mask21_341_1044)">
<path d="M34.4351 42.6046H127.099V49.9884H34.4351V42.6046Z" fill="white"/>
</g>
<mask id="mask22_341_1044" style="mask-type:luminance" maskUnits="userSpaceOnUse" x="130" y="40" width="2" height="11">
<path d="M130.508 40.7693H131.056V51H130.508V40.7693Z" fill="white"/>
</mask>
<g mask="url(#mask22_341_1044)">
<path d="M130.508 40.7693H131.054V50.997H130.508V40.7693Z" fill="white"/>
</g>
<mask id="mask23_341_1044" style="mask-type:luminance" maskUnits="userSpaceOnUse" x="136" y="44" width="8" height="5">
<path d="M136.127 44.0762H143.605V48.5165H136.127V44.0762Z" fill="white"/>
</mask>
<g mask="url(#mask23_341_1044)">
<mask id="mask24_341_1044" style="mask-type:luminance" maskUnits="userSpaceOnUse" x="136" y="44" width="8" height="5">
<path d="M137.029 45.0523V45.8089H142.383C142.461 45.8089 142.532 45.7881 142.6 45.7436C142.669 45.6991 142.701 45.6205 142.701 45.4988V45.3979C142.701 45.2703 142.671 45.1813 142.609 45.1279C142.546 45.076 142.467 45.0523 142.375 45.0523H137.029ZM142.751 44.085C142.857 44.085 142.959 44.1072 143.066 44.1517C143.172 44.1962 143.26 44.2615 143.339 44.3446C143.417 44.4277 143.479 44.5285 143.526 44.6487C143.572 44.7704 143.597 44.9039 143.597 45.0523V45.8089C143.597 45.9661 143.572 46.1056 143.526 46.2228C143.479 46.3415 143.414 46.4424 143.339 46.5254C143.262 46.6085 143.169 46.6693 143.066 46.7109C142.962 46.7524 142.857 46.7762 142.751 46.7762H137.029V48.5105H136.131V44.085H142.751Z" fill="white"/>
</mask>
<g mask="url(#mask24_341_1044)">
<path d="M134.771 42.6046H194.804V49.9884H134.771V42.6046Z" fill="white"/>
</g>
</g>
<mask id="mask25_341_1044" style="mask-type:luminance" maskUnits="userSpaceOnUse" x="144" y="44" width="8" height="5">
<path d="M144.426 44.0762H151.934V48.5165H144.426V44.0762Z" fill="white"/>
</mask>
<g mask="url(#mask25_341_1044)">
<mask id="mask26_341_1044" style="mask-type:luminance" maskUnits="userSpaceOnUse" x="144" y="44" width="8" height="5">
<path d="M145.336 45.0523V45.8089H150.69C150.774 45.8089 150.848 45.7881 150.912 45.7495C150.978 45.711 151.008 45.6279 151.008 45.5077V45.4068C151.008 45.2792 150.978 45.1873 150.917 45.1338C150.859 45.0819 150.78 45.0523 150.679 45.0523H145.336ZM151.057 44.085C151.163 44.085 151.27 44.1072 151.372 44.1517C151.476 44.1962 151.566 44.2615 151.645 44.3446C151.724 44.4277 151.787 44.5285 151.833 44.6487C151.878 44.7704 151.903 44.9039 151.903 45.0523V45.8089C151.903 46.07 151.843 46.2792 151.724 46.4394C151.604 46.5996 151.454 46.699 151.275 46.7495L151.911 48.5105H150.999L150.287 46.7762H145.336V48.5105H144.438V44.085H151.057Z" fill="white"/>
</mask>
<g mask="url(#mask26_341_1044)">
<path d="M134.771 42.6046H194.804V49.9884H134.771V42.6046Z" fill="white"/>
</g>
</g>
<mask id="mask27_341_1044" style="mask-type:luminance" maskUnits="userSpaceOnUse" x="152" y="44" width="9" height="5">
<path d="M152.73 44.0762H160.235V48.5165H152.73V44.0762Z" fill="white"/>
</mask>
<g mask="url(#mask27_341_1044)">
<mask id="mask28_341_1044" style="mask-type:luminance" maskUnits="userSpaceOnUse" x="152" y="44" width="9" height="5">
<path d="M159.217 47.4275C159.282 47.3503 159.312 47.2524 159.312 47.1322V45.4632C159.312 45.3415 159.285 45.2436 159.233 45.1665C159.181 45.0908 159.102 45.0523 159.001 45.0523H153.953C153.841 45.0523 153.762 45.0908 153.713 45.1665C153.665 45.2436 153.643 45.3415 153.643 45.4632V47.1322C153.643 47.2524 153.67 47.3503 153.726 47.4275C153.784 47.5046 153.852 47.5432 153.937 47.5432H158.996C159.08 47.5432 159.154 47.5046 159.22 47.4275M159.682 44.1517C159.786 44.1992 159.875 44.2615 159.954 44.3446C160.033 44.4277 160.096 44.5285 160.142 44.6487C160.189 44.7704 160.213 44.9039 160.213 45.0493V47.5402C160.213 47.6989 160.189 47.8354 160.142 47.9541C160.096 48.0728 160.03 48.1737 159.954 48.2553C159.877 48.3384 159.786 48.4007 159.682 48.4422C159.579 48.4838 159.472 48.5075 159.366 48.5075H153.591C153.479 48.5075 153.373 48.4867 153.272 48.4422C153.172 48.3977 153.082 48.3384 153.003 48.2553C152.924 48.1737 152.861 48.0728 152.815 47.9541C152.77 47.8354 152.745 47.696 152.745 47.5402V45.0523C152.745 44.9009 152.77 44.7644 152.815 44.6398C152.861 44.5167 152.927 44.4158 153.003 44.3357C153.079 44.2556 153.172 44.1903 153.272 44.1488C153.373 44.1072 153.479 44.085 153.591 44.085H159.363C159.469 44.085 159.576 44.1072 159.68 44.1517" fill="white"/>
</mask>
<g mask="url(#mask28_341_1044)">
<path d="M134.771 42.6046H194.804V49.9884H134.771V42.6046Z" fill="white"/>
</g>
</g>
<mask id="mask29_341_1044" style="mask-type:luminance" maskUnits="userSpaceOnUse" x="161" y="44" width="8" height="5">
<path d="M161.051 44.085H168.519V45.0523H161.051V44.085ZM164.33 45.0523H165.228V48.5075H164.33V45.0523Z" fill="white"/>
</mask>
<g mask="url(#mask29_341_1044)">
<path d="M134.771 42.6046H194.804V49.9884H134.771V42.6046Z" fill="white"/>
</g>
<mask id="mask30_341_1044" style="mask-type:luminance" maskUnits="userSpaceOnUse" x="169" y="44" width="8" height="5">
<path d="M169.356 44.085H176.825V45.0523H169.356V44.085ZM169.356 45.0523H170.254V45.8089H169.356V45.0523ZM169.356 45.8089H176.825V46.7762H169.356V45.8089ZM169.356 46.7762H170.254V47.5402H169.356V46.7762ZM169.356 47.5402H176.825V48.5075H169.356V47.5402Z" fill="white"/>
</mask>
<g mask="url(#mask30_341_1044)">
<path d="M134.771 42.6046H194.804V49.9884H134.771V42.6046Z" fill="white"/>
</g>
<mask id="mask31_341_1044" style="mask-type:luminance" maskUnits="userSpaceOnUse" x="177" y="44" width="9" height="5">
<path d="M177.641 44.0762H185.148V48.5165H177.641V44.0762Z" fill="white"/>
</mask>
<g mask="url(#mask31_341_1044)">
<mask id="mask32_341_1044" style="mask-type:luminance" maskUnits="userSpaceOnUse" x="177" y="44" width="9" height="5">
<path d="M178.51 44.085H184.282C184.389 44.085 184.495 44.1072 184.599 44.1517C184.702 44.1962 184.791 44.2615 184.87 44.3446C184.949 44.4277 185.012 44.5285 185.059 44.6487C185.105 44.7704 185.13 44.9039 185.13 45.0523V45.7169H184.232V45.4632C184.232 45.3415 184.204 45.2436 184.152 45.1665C184.101 45.0908 184.021 45.0523 183.92 45.0523H178.872C178.76 45.0523 178.678 45.0908 178.632 45.1665C178.587 45.2436 178.562 45.3415 178.562 45.4632V47.1322C178.562 47.2524 178.59 47.3503 178.646 47.4275C178.703 47.5046 178.771 47.5432 178.856 47.5432H183.915C184 47.5432 184.073 47.5046 184.139 47.4275C184.204 47.3503 184.234 47.2524 184.234 47.1322V46.8652H185.132V47.5402C185.132 47.696 185.108 47.8354 185.061 47.9541C185.015 48.0728 184.949 48.1737 184.873 48.2553C184.797 48.3384 184.705 48.4007 184.601 48.4422C184.498 48.4838 184.394 48.5075 184.285 48.5075H178.51C178.399 48.5075 178.292 48.4867 178.191 48.4422C178.091 48.3977 178.001 48.3384 177.925 48.2553C177.849 48.1737 177.783 48.0758 177.737 47.9541C177.69 47.8325 177.667 47.696 177.667 47.5402V45.0523C177.667 44.9009 177.69 44.7615 177.737 44.6398C177.783 44.5196 177.849 44.4158 177.925 44.3357C178.001 44.2556 178.091 44.1903 178.191 44.1488C178.292 44.1072 178.399 44.085 178.51 44.085Z" fill="white"/>
</mask>
<g mask="url(#mask32_341_1044)">
<path d="M134.771 42.6046H194.804V49.9884H134.771V42.6046Z" fill="white"/>
</g>
</g>
<mask id="mask33_341_1044" style="mask-type:luminance" maskUnits="userSpaceOnUse" x="185" y="44" width="9" height="5">
<path d="M185.97 44.085H193.438V45.0523H185.97V44.085ZM189.25 45.0523H190.148V48.5075H189.25V45.0523Z" fill="white"/>
</mask>
<g mask="url(#mask33_341_1044)">
<path d="M134.771 42.6046H194.804V49.9884H134.771V42.6046Z" fill="white"/>
</g>
<mask id="mask34_341_1044" style="mask-type:luminance" maskUnits="userSpaceOnUse" x="198" y="40" width="1" height="11">
<path d="M198.233 40.7693H198.779V51H198.233V40.7693Z" fill="white"/>
</mask>
<g mask="url(#mask34_341_1044)">
<path d="M198.233 40.7693H198.779V50.997H198.233V40.7693Z" fill="white"/>
</g>
<mask id="mask35_341_1044" style="mask-type:luminance" maskUnits="userSpaceOnUse" x="63" y="10" width="16" height="28">
<path d="M63.5483 10H78.6892V37.6479H63.5483V10Z" fill="white"/>
</mask>
<g mask="url(#mask35_341_1044)">
<mask id="mask36_341_1044" style="mask-type:luminance" maskUnits="userSpaceOnUse" x="63" y="10" width="16" height="28">
<path d="M76.8661 10.0267H65.4156C64.4057 10.0267 63.5923 10.8902 63.5923 11.988V35.6391C63.5923 36.737 64.4057 37.6004 65.4156 37.6004H76.8661C77.876 37.6004 78.6703 36.737 78.6703 35.6391V11.988C78.6731 10.8902 77.876 10.0267 76.8661 10.0267Z" fill="white"/>
</mask>
<g mask="url(#mask36_341_1044)">
<path d="M62.2319 8.54614H246.448V39.0796H62.2319V8.54614Z" fill="white"/>
</g>
</g>
<mask id="mask37_341_1044" style="mask-type:luminance" maskUnits="userSpaceOnUse" x="80" y="10" width="166" height="28">
<path d="M80.9248 10H245.131V37.6479H80.9248V10Z" fill="white"/>
</mask>
<g mask="url(#mask37_341_1044)">
<mask id="mask38_341_1044" style="mask-type:luminance" maskUnits="userSpaceOnUse" x="80" y="10" width="166" height="28">
<path d="M221.059 13.973H243.225C244.253 13.973 245.049 13.1096 245.049 11.991C245.049 10.8931 244.25 10.0267 243.225 10.0267H209.163C205.184 10.0267 201.923 13.571 201.923 17.8956V29.7301C201.923 31.1587 202.285 32.4969 202.903 33.6541H192.173C187.166 33.6541 183.111 29.2449 183.111 23.8017V11.988C183.111 10.8902 182.315 10.0267 181.305 10.0267H169.406C169.214 10.0267 169.031 10.0668 168.86 10.1261C168.53 10.1617 168.182 10.2923 167.932 10.4911L153.433 21.8404C153.142 22.0704 152.696 22.2395 152.348 22.2395C151.979 22.2395 151.609 22.0704 151.261 21.8404L138.491 11.8397C137.114 10.7418 135.385 10.1083 133.638 10.1083H122.4C121.605 10.1083 120.944 10.6558 120.671 11.4376C120.613 11.6646 120.588 11.8901 120.596 12.1082C120.528 12.3189 120.484 12.5444 120.484 12.7862V27.8311C120.484 28.1471 120.192 28.2302 120.136 28.2302C120.057 28.2302 119.981 28.2302 119.901 28.1471L99.176 12.304C97.4482 10.8071 95.1963 10.0267 92.9458 10.0267H86.212C83.2995 10.0267 80.9917 12.7891 80.9917 15.8483V35.6391C80.9917 36.737 81.7874 37.6004 82.7959 37.6004C83.825 37.6004 84.6206 36.737 84.6206 35.6391V21.4399C84.6206 21.1446 84.9113 21.0615 85.0478 21.0615C85.127 21.0615 85.202 21.0615 85.2621 21.1446L104.845 35.154C106.649 36.6509 108.9 37.5173 111.133 37.5173H118.467C121.224 37.5173 124.115 34.9226 124.115 31.7774V15.8809L137.851 26.7985C138.645 27.432 139.074 28.3815 139.074 29.4141V35.6391C139.074 36.737 139.868 37.6004 140.897 37.6004H152.348C153.356 37.6004 154.152 36.737 154.152 35.6391V28.1471C154.152 26.6502 154.81 25.6146 155.529 25.0672L167.602 15.5649V23.8017C167.602 31.3753 173.328 37.6004 180.275 37.6004H243.225C244.253 37.6004 245.049 36.737 245.049 35.6391C245.049 34.5205 244.253 33.6571 243.225 33.6571H221.059C219.1 33.6571 217.428 31.9258 217.428 29.733V25.7867H243.225C244.253 25.7867 245.049 24.9233 245.049 23.8047C245.049 22.7068 244.253 21.8434 243.225 21.8434H217.431V17.8956C217.431 15.7029 219.1 13.973 221.061 13.973" fill="white"/>
</mask>
<g mask="url(#mask38_341_1044)">
<path d="M62.2319 8.54614H246.448V39.0796H62.2319V8.54614Z" fill="white"/>
</g>
</g>
<mask id="mask39_341_1044" style="mask-type:luminance" maskUnits="userSpaceOnUse" x="248" y="10" width="45" height="28">
<path d="M248.44 10.0253H293V37.7073H248.44V10.0253Z" fill="white"/>
</mask>
<g mask="url(#mask39_341_1044)">
<mask id="mask40_341_1044" style="mask-type:luminance" maskUnits="userSpaceOnUse" x="248" y="10" width="45" height="28">
<path d="M268.431 33.6527H263.499V13.9731H268.431C273.439 13.9731 277.495 18.3808 277.495 23.8047C277.495 29.2479 273.439 33.6556 268.431 33.6556M280.328 10.0253H250.244C249.237 10.0253 248.44 10.8902 248.44 11.988V35.6392C248.44 36.7355 249.237 37.6004 250.244 37.6004H280.328C287.352 37.6004 293 31.3754 293 23.8017C293 16.2503 287.352 10.0253 280.328 10.0253Z" fill="white"/>
</mask>
<g mask="url(#mask40_341_1044)">
<path d="M248.44 10.0253H293.029V37.6004H248.44V10.0253Z" fill="white"/>
</g>
</g>
<mask id="mask41_341_1044" style="mask-type:luminance" maskUnits="userSpaceOnUse" x="203" y="44" width="9" height="5">
<path d="M203.776 44.0762H211.337V48.5165H203.776V44.0762Z" fill="white"/>
</mask>
<g mask="url(#mask41_341_1044)">
<mask id="mask42_341_1044" style="mask-type:luminance" maskUnits="userSpaceOnUse" x="203" y="44" width="9" height="5">
<path d="M211.329 44.085V48.5075H210.431V45.1606L207.551 48.052L204.683 45.1606V48.5075H203.785V44.085H204.808L207.551 46.8741L210.303 44.085H211.329Z" fill="white"/>
</mask>
<g mask="url(#mask42_341_1044)">
<path d="M202.424 42.6046H268.347V49.9884H202.424V42.6046Z" fill="white"/>
</g>
</g>
<mask id="mask43_341_1044" style="mask-type:luminance" maskUnits="userSpaceOnUse" x="211" y="44" width="9" height="5">
<path d="M211.921 44.0762H219.402V48.5165H211.921V44.0762Z" fill="white"/>
</mask>
<g mask="url(#mask43_341_1044)">
<mask id="mask44_341_1044" style="mask-type:luminance" maskUnits="userSpaceOnUse" x="211" y="44" width="9" height="5">
<path d="M215.657 45.0344L214.532 46.5017H216.78L215.657 45.0344ZM213.03 48.5075H211.923L215.213 44.085H216.103L219.391 48.5075H218.283L217.477 47.4393H213.835L213.03 48.5075Z" fill="white"/>
</mask>
<g mask="url(#mask44_341_1044)">
<path d="M202.424 42.6046H268.347V49.9884H202.424V42.6046Z" fill="white"/>
</g>
</g>
<mask id="mask45_341_1044" style="mask-type:luminance" maskUnits="userSpaceOnUse" x="220" y="44" width="8" height="5">
<path d="M220.012 44.0762H227.519V48.5165H220.012V44.0762Z" fill="white"/>
</mask>
<g mask="url(#mask45_341_1044)">
<mask id="mask46_341_1044" style="mask-type:luminance" maskUnits="userSpaceOnUse" x="220" y="44" width="8" height="5">
<path d="M227.495 47.5402V48.5075H220.029V47.5402H223.309V45.0523H220.029V44.085H227.495V45.0523H224.207V47.5432L227.495 47.5402Z" fill="white"/>
</mask>
<g mask="url(#mask46_341_1044)">
<path d="M202.424 42.6046H268.347V49.9884H202.424V42.6046Z" fill="white"/>
</g>
</g>
<mask id="mask47_341_1044" style="mask-type:luminance" maskUnits="userSpaceOnUse" x="228" y="44" width="8" height="5">
<path d="M228.315 44.0762H235.823V48.5165H228.315V44.0762Z" fill="white"/>
</mask>
<g mask="url(#mask47_341_1044)">
<mask id="mask48_341_1044" style="mask-type:luminance" maskUnits="userSpaceOnUse" x="228" y="44" width="8" height="5">
<path d="M228.337 44.085H229.243L234.907 47.4423V44.085H235.805V48.5075H234.899L229.232 45.1516V48.5075H228.334L228.337 44.085Z" fill="white"/>
</mask>
<g mask="url(#mask48_341_1044)">
<path d="M202.424 42.6046H268.347V49.9884H202.424V42.6046Z" fill="white"/>
</g>
</g>
<mask id="mask49_341_1044" style="mask-type:luminance" maskUnits="userSpaceOnUse" x="236" y="44" width="9" height="5">
<path d="M236.643 44.085H244.111V45.0523H236.643V44.085ZM239.923 45.0523H240.821V48.5075H239.923V45.0523Z" fill="white"/>
</mask>
<g mask="url(#mask49_341_1044)">
<path d="M202.424 42.6046H268.347V49.9884H202.424V42.6046Z" fill="white"/>
</g>
<mask id="mask50_341_1044" style="mask-type:luminance" maskUnits="userSpaceOnUse" x="243" y="44" width="8" height="5">
<path d="M243.092 44.0762H250.574V48.5165H243.092V44.0762Z" fill="white"/>
</mask>
<g mask="url(#mask50_341_1044)">
<mask id="mask51_341_1044" style="mask-type:luminance" maskUnits="userSpaceOnUse" x="243" y="44" width="8" height="5">
<path d="M246.835 45.0344L245.712 46.5017H247.96L246.835 45.0344ZM244.209 48.5075H243.101L246.392 44.085H247.281L250.569 48.5075H249.462L248.656 47.4393H245.014L244.209 48.5075Z" fill="white"/>
</mask>
<g mask="url(#mask51_341_1044)">
<path d="M202.424 42.6046H268.347V49.9884H202.424V42.6046Z" fill="white"/>
</g>
</g>
<mask id="mask52_341_1044" style="mask-type:luminance" maskUnits="userSpaceOnUse" x="251" y="44" width="8" height="5">
<path d="M251.183 44.0762H258.691V48.5165H251.183V44.0762Z" fill="white"/>
</mask>
<g mask="url(#mask52_341_1044)">
<mask id="mask53_341_1044" style="mask-type:luminance" maskUnits="userSpaceOnUse" x="251" y="44" width="8" height="5">
<path d="M258.674 47.5402V48.5075H251.206V47.5402H254.488V45.0523H251.206V44.085H258.674V45.0523H255.386V47.5432L258.674 47.5402Z" fill="white"/>
</mask>
<g mask="url(#mask53_341_1044)">
<path d="M202.424 42.6046H268.347V49.9884H202.424V42.6046Z" fill="white"/>
</g>
</g>
<mask id="mask54_341_1044" style="mask-type:luminance" maskUnits="userSpaceOnUse" x="259" y="44" width="8" height="5">
<path d="M259.486 44.0762H266.994V48.5165H259.486V44.0762Z" fill="white"/>
</mask>
<g mask="url(#mask54_341_1044)">
<mask id="mask55_341_1044" style="mask-type:luminance" maskUnits="userSpaceOnUse" x="259" y="44" width="8" height="5">
<path d="M259.513 44.085H260.419L266.083 47.4423V44.085H266.981V48.5075H266.075L260.411 45.1516V48.5075H259.513V44.085Z" fill="white"/>
</mask>
<g mask="url(#mask55_341_1044)">
<path d="M202.424 42.6046H268.347V49.9884H202.424V42.6046Z" fill="white"/>
</g>
</g>
</svg>
