<svg xmlns="http://www.w3.org/2000/svg" xmlns:xlink="http://www.w3.org/1999/xlink" width="1080" zoomAndPan="magnify" viewBox="0 0 810 404.99999" height="540" preserveAspectRatio="xMidYMid meet" version="1.0"><defs><clipPath id="5c9c838d53"><path d="M 71.28125 172.414062 L 191 172.414062 L 191 232.585938 L 71.28125 232.585938 Z M 71.28125 172.414062 " clip-rule="nonzero"/></clipPath><clipPath id="6b717085ca"><path d="M 186.777344 172.605469 C 185.773438 172.605469 184.578125 172.925781 183.714844 173.789062 L 151.410156 206.09375 C 150.585938 207.097656 148.847656 207.652344 147.148438 207.652344 C 145.089844 207.652344 143.210938 206.96875 142.027344 205.589844 L 113.496094 177.046875 C 110.792969 174.164062 106.855469 172.605469 102.75 172.605469 L 75.746094 172.605469 C 74.0625 172.605469 72.503906 173.609375 71.820312 175.167969 C 71.140625 176.863281 71.5 178.730469 72.695312 179.96875 L 121.035156 228.140625 C 123.777344 230.84375 127.34375 232.398438 131.28125 232.398438 C 135.21875 232.398438 138.785156 230.84375 141.527344 228.140625 L 189.699219 179.96875 C 191.398438 178.230469 191.398438 175.488281 189.699219 173.789062 C 189.015625 172.925781 187.820312 172.605469 186.777344 172.605469 " clip-rule="nonzero"/></clipPath><clipPath id="32765efcd1"><path d="M 197.585938 172.414062 L 233.347656 172.414062 L 233.347656 232.585938 L 197.585938 232.585938 Z M 197.585938 172.414062 " clip-rule="nonzero"/></clipPath><clipPath id="cb74dd8443"><path d="M 229.082031 172.605469 L 202.09375 172.605469 C 199.710938 172.605469 197.792969 174.484375 197.792969 176.863281 L 197.792969 228.140625 C 197.792969 230.519531 199.710938 232.398438 202.09375 232.398438 L 229.082031 232.398438 C 231.460938 232.398438 233.339844 230.519531 233.339844 228.140625 L 233.339844 176.863281 C 233.339844 174.484375 231.460938 172.605469 229.082031 172.605469 " clip-rule="nonzero"/></clipPath><clipPath id="9a8f14a46e"><path d="M 238.742188 172.414062 L 625.597656 172.414062 L 625.597656 232.585938 L 238.742188 232.585938 Z M 238.742188 172.414062 " clip-rule="nonzero"/></clipPath><clipPath id="04a42d2449"><path d="M 568.957031 181.164062 L 621.195312 181.164062 C 623.617188 181.164062 625.496094 179.285156 625.496094 176.863281 C 625.496094 174.484375 623.617188 172.605469 621.195312 172.605469 L 540.914062 172.605469 C 531.53125 172.605469 523.847656 180.289062 523.847656 189.671875 L 523.847656 215.335938 C 523.847656 218.421875 524.695312 221.332031 526.152344 223.839844 L 500.875 223.839844 C 489.070312 223.839844 479.507812 214.277344 479.507812 202.476562 L 479.507812 176.863281 C 479.507812 174.484375 477.628906 172.605469 475.261719 172.605469 L 447.203125 172.605469 C 446.753906 172.605469 446.316406 172.695312 445.917969 172.824219 C 445.144531 172.902344 444.320312 173.183594 443.730469 173.609375 L 409.558594 198.214844 C 408.878906 198.71875 407.824219 199.078125 407 199.078125 C 406.136719 199.078125 405.261719 198.71875 404.4375 198.214844 L 374.335938 176.542969 C 371.089844 174.164062 367.011719 172.796875 362.894531 172.796875 L 336.40625 172.796875 C 334.527344 172.796875 332.96875 173.980469 332.339844 175.679688 C 332.199219 176.171875 332.144531 176.660156 332.160156 177.136719 C 332.003906 177.597656 331.902344 178.074219 331.902344 178.601562 L 331.902344 211.214844 C 331.902344 211.898438 331.21875 212.089844 331.078125 212.089844 C 330.898438 212.089844 330.703125 212.089844 330.523438 211.910156 L 281.667969 177.546875 C 277.601562 174.304688 272.285156 172.605469 266.984375 172.605469 L 251.117188 172.605469 C 244.253906 172.605469 238.8125 178.601562 238.8125 185.230469 L 238.8125 228.140625 C 238.8125 230.519531 240.691406 232.398438 243.070312 232.398438 C 245.492188 232.398438 247.371094 230.519531 247.371094 228.140625 L 247.371094 197.355469 C 247.371094 196.710938 248.050781 196.53125 248.375 196.53125 C 248.554688 196.53125 248.734375 196.53125 248.875 196.710938 L 295.027344 227.085938 C 299.289062 230.328125 304.589844 232.207031 309.855469 232.207031 L 327.152344 232.207031 C 333.652344 232.207031 340.460938 226.582031 340.460938 219.761719 L 340.460938 185.296875 L 372.828125 208.964844 C 374.707031 210.339844 375.710938 212.398438 375.710938 214.640625 L 375.710938 228.140625 C 375.710938 230.519531 377.589844 232.398438 380.011719 232.398438 L 407 232.398438 C 409.378906 232.398438 411.257812 230.519531 411.257812 228.140625 L 411.257812 211.898438 C 411.257812 208.65625 412.816406 206.402344 414.503906 205.21875 L 442.957031 184.613281 L 442.957031 202.476562 C 442.957031 218.898438 456.457031 232.398438 472.828125 232.398438 L 621.195312 232.398438 C 623.617188 232.398438 625.496094 230.519531 625.496094 228.140625 C 625.496094 225.71875 623.617188 223.839844 621.195312 223.839844 L 568.957031 223.839844 C 564.335938 223.839844 560.398438 220.097656 560.398438 215.335938 L 560.398438 206.773438 L 621.195312 206.773438 C 623.617188 206.773438 625.496094 204.894531 625.496094 202.476562 C 625.496094 200.097656 623.617188 198.230469 621.195312 198.230469 L 560.398438 198.230469 L 560.398438 189.671875 C 560.398438 184.910156 564.335938 181.164062 568.957031 181.164062 " clip-rule="nonzero"/></clipPath><clipPath id="7258a24d01"><path d="M 633.261719 172.414062 L 738.558594 172.414062 L 738.558594 232.585938 L 633.261719 232.585938 Z M 633.261719 172.414062 " clip-rule="nonzero"/></clipPath><clipPath id="d189b5a77e"><path d="M 680.617188 223.839844 L 668.996094 223.839844 L 668.996094 181.164062 L 680.617188 181.164062 C 692.421875 181.164062 701.984375 190.726562 701.984375 202.476562 C 701.984375 214.277344 692.421875 223.839844 680.617188 223.839844 M 708.648438 172.605469 L 637.746094 172.605469 C 635.367188 172.605469 633.488281 174.484375 633.488281 176.863281 L 633.488281 228.140625 C 633.488281 230.519531 635.367188 232.398438 637.746094 232.398438 L 708.648438 232.398438 C 725.214844 232.398438 738.519531 218.898438 738.519531 202.476562 C 738.519531 186.105469 725.214844 172.605469 708.648438 172.605469 " clip-rule="nonzero"/></clipPath></defs><rect x="-81" width="972" fill="#ffffff" y="-40.499999" height="485.999988" fill-opacity="1"/><g clip-path="url(#5c9c838d53)"><g clip-path="url(#6b717085ca)"><path fill="#231f20" d="M 65.039062 166.171875 L 745.089844 166.171875 L 745.089844 238.828125 L 65.039062 238.828125 Z M 65.039062 166.171875 " fill-opacity="1" fill-rule="nonzero"/></g></g><g clip-path="url(#32765efcd1)"><g clip-path="url(#cb74dd8443)"><path fill="#231f20" d="M 65.039062 166.171875 L 745.089844 166.171875 L 745.089844 238.828125 L 65.039062 238.828125 Z M 65.039062 166.171875 " fill-opacity="1" fill-rule="nonzero"/></g></g><g clip-path="url(#9a8f14a46e)"><g clip-path="url(#04a42d2449)"><path fill="#231f20" d="M 65.039062 166.171875 L 745.089844 166.171875 L 745.089844 238.828125 L 65.039062 238.828125 Z M 65.039062 166.171875 " fill-opacity="1" fill-rule="nonzero"/></g></g><g clip-path="url(#7258a24d01)"><g clip-path="url(#d189b5a77e)"><path fill="#231f20" d="M 65.039062 166.171875 L 745.089844 166.171875 L 745.089844 238.828125 L 65.039062 238.828125 Z M 65.039062 166.171875 " fill-opacity="1" fill-rule="nonzero"/></g></g></svg>