<svg width="29" height="29" viewBox="0 0 29 29" fill="none" xmlns="http://www.w3.org/2000/svg">
<g clip-path="url(#clip0_36_542)">
<g filter="url(#filter0_d_36_542)">
<mask id="mask0_36_542" style="mask-type:luminance" maskUnits="userSpaceOnUse" x="0" y="4" width="29" height="21">
<path d="M28.6379 4.39868H0.090332V24.1486H28.6379V4.39868Z" fill="white"/>
</mask>
<g mask="url(#mask0_36_542)">
<path fill-rule="evenodd" clip-rule="evenodd" d="M25.2666 5.06355C26.475 5.38673 27.4176 6.33293 27.7443 7.54126C28.599 10.9885 28.5433 17.506 27.7623 21.0071C27.4391 22.2154 26.4929 23.158 25.2846 23.4848C21.8733 24.3286 6.59403 24.2245 3.38019 23.4848C2.17186 23.1616 1.22925 22.2154 0.902481 21.0071C0.0963267 17.7214 0.151985 10.773 0.884526 7.55921C1.20771 6.35088 2.1539 5.40828 3.36224 5.0815C7.92265 4.12992 23.6436 4.43694 25.2666 5.06355ZM11.6215 10.0724L18.9468 14.2738L11.6215 18.4751V10.0724Z" fill="#9D9B9B"/>
</g>
</g>
</g>
<defs>
<filter id="filter0_d_36_542" x="0.316406" y="4.47583" width="29.0699" height="20.6231" filterUnits="userSpaceOnUse" color-interpolation-filters="sRGB">
<feFlood flood-opacity="0" result="BackgroundImageFix"/>
<feColorMatrix in="SourceAlpha" type="matrix" values="0 0 0 0 0 0 0 0 0 0 0 0 0 0 0 0 0 0 127 0" result="hardAlpha"/>
<feOffset dx="1.01959" dy="1.01959"/>
<feComposite in2="hardAlpha" operator="out"/>
<feColorMatrix type="matrix" values="0 0 0 0 0 0 0 0 0 0 0 0 0 0 0 0 0 0 0.1 0"/>
<feBlend mode="normal" in2="BackgroundImageFix" result="effect1_dropShadow_36_542"/>
<feBlend mode="normal" in="SourceGraphic" in2="effect1_dropShadow_36_542" result="shape"/>
</filter>
<clipPath id="clip0_36_542">
<rect width="28.5484" height="28.5484" fill="white" transform="translate(0.0966797)"/>
</clipPath>
</defs>
</svg>
