<svg width="283" height="34" viewBox="0 0 283 34" fill="none" xmlns="http://www.w3.org/2000/svg">
<mask id="mask0_338_522" style="mask-type:luminance" maskUnits="userSpaceOnUse" x="0" y="0" width="51" height="23">
<path d="M0 0.0222168H50.7315V22.9768H0V0.0222168Z" fill="white"/>
</mask>
<g mask="url(#mask0_338_522)">
<mask id="mask1_338_522" style="mask-type:luminance" maskUnits="userSpaceOnUse" x="0" y="0" width="51" height="23">
<path d="M48.9178 0.0222168C48.4907 0.0222168 47.9871 0.144014 47.6158 0.47619L33.9149 12.8294C33.5668 13.2145 32.8299 13.4224 32.1106 13.4224C31.2372 13.4224 30.4429 13.1604 29.9365 12.635L17.8269 1.72C16.6818 0.615212 15.0127 0.0222168 13.2658 0.0222168H1.81531C1.09744 0.0222168 0.43825 0.407295 0.147553 1.00029C-0.144509 1.64865 0.0110754 2.36467 0.514678 2.83833L21.0286 21.2618C22.1928 22.294 23.7063 22.8882 25.3741 22.8882C27.0432 22.8882 28.5567 22.294 29.7209 21.2618L50.1584 2.83833C50.8777 2.17398 50.8777 1.12332 50.1584 0.47619C49.8677 0.144014 49.3641 0.0222168 48.9178 0.0222168Z" fill="white"/>
</mask>
<g mask="url(#mask1_338_522)">
<path d="M0 0.0222168H50.7315V22.887H0V0.0222168Z" fill="white"/>
</g>
</g>
<mask id="mask2_338_522" style="mask-type:luminance" maskUnits="userSpaceOnUse" x="25" y="28" width="9" height="4">
<path d="M25.7876 28.2583H33.2693V31.9405H25.7876V28.2583Z" fill="white"/>
</mask>
<g mask="url(#mask2_338_522)">
<mask id="mask3_338_522" style="mask-type:luminance" maskUnits="userSpaceOnUse" x="25" y="28" width="9" height="4">
<path d="M26.6939 29.0678V29.6952H32.0479C32.1271 29.6952 32.1967 29.678 32.2649 29.6411C32.3332 29.6042 32.3659 29.539 32.3659 29.4381V29.3544C32.3659 29.2486 32.3359 29.1748 32.2731 29.1305C32.2103 29.0875 32.1326 29.0678 32.0398 29.0678H26.6939ZM32.4151 28.2656C32.5215 28.2656 32.6252 28.2841 32.7303 28.321C32.8368 28.3579 32.9241 28.412 33.0033 28.4809C33.0824 28.5498 33.1439 28.6335 33.1903 28.7331C33.2367 28.834 33.2612 28.9447 33.2612 29.0678V29.6952C33.2612 29.8256 33.2367 29.9413 33.1903 30.0385C33.1439 30.1369 33.0797 30.2205 33.0033 30.2894C32.9269 30.3583 32.8341 30.4088 32.7303 30.4432C32.628 30.4777 32.5215 30.4974 32.4151 30.4974H26.6939V31.9355H25.7959V28.2656H32.4151Z" fill="white"/>
</mask>
<g mask="url(#mask3_338_522)">
<path d="M24.4351 27.038H117.099V33.1611H24.4351V27.038Z" fill="white"/>
</g>
</g>
<mask id="mask4_338_522" style="mask-type:luminance" maskUnits="userSpaceOnUse" x="34" y="28" width="8" height="4">
<path d="M34.1016 28.2656H41.571V29.0678H34.1016V28.2656ZM34.1016 29.0678H34.9996V29.6952H34.1016V29.0678ZM34.1016 29.6952H41.571V30.4974H34.1016V29.6952ZM34.1016 30.4974H34.9996V31.1309H34.1016V30.4974ZM34.1016 31.1309H41.571V31.9331H34.1016V31.1309Z" fill="white"/>
</mask>
<g mask="url(#mask4_338_522)">
<path d="M24.4351 27.038H117.099V33.1611H24.4351V27.038Z" fill="white"/>
</g>
<mask id="mask5_338_522" style="mask-type:luminance" maskUnits="userSpaceOnUse" x="42" y="28" width="8" height="4">
<path d="M42.3955 28.2583H49.9031V31.9405H42.3955V28.2583Z" fill="white"/>
</mask>
<g mask="url(#mask5_338_522)">
<mask id="mask6_338_522" style="mask-type:luminance" maskUnits="userSpaceOnUse" x="42" y="28" width="8" height="4">
<path d="M43.3077 29.0678V29.6952H48.6603C48.745 29.6952 48.8187 29.678 48.8842 29.646C48.9497 29.614 48.9824 29.5451 48.9824 29.4455V29.3618C48.9824 29.256 48.9524 29.1797 48.8924 29.1354C48.8323 29.0924 48.7531 29.0678 48.6522 29.0678H43.3077ZM49.0288 28.2656C49.1339 28.2656 49.2376 28.2841 49.3441 28.321C49.4505 28.3579 49.5379 28.412 49.6157 28.4809C49.6948 28.5498 49.7576 28.6335 49.804 28.7331C49.8504 28.834 49.875 28.9447 49.875 29.0678V29.6952C49.875 29.9117 49.8149 30.0852 49.6948 30.2181C49.5747 30.3509 49.426 30.4334 49.2458 30.4752L49.8832 31.9355H48.9715L48.2577 30.4974H43.3077V31.9355H42.4097V28.2656H49.0288Z" fill="white"/>
</mask>
<g mask="url(#mask6_338_522)">
<path d="M24.4351 27.038H117.099V33.1611H24.4351V27.038Z" fill="white"/>
</g>
</g>
<mask id="mask7_338_522" style="mask-type:luminance" maskUnits="userSpaceOnUse" x="50" y="28" width="9" height="4">
<path d="M50.6987 28.2583H58.2064V31.9405H50.6987V28.2583Z" fill="white"/>
</mask>
<g mask="url(#mask7_338_522)">
<mask id="mask8_338_522" style="mask-type:luminance" maskUnits="userSpaceOnUse" x="50" y="28" width="9" height="4">
<path d="M50.7148 31.1309H56.9669C57.0515 31.1309 57.1238 31.1088 57.1893 31.0621C57.2549 31.0153 57.2876 30.9439 57.2876 30.8431V30.7754C57.2876 30.6696 57.2603 30.5958 57.2085 30.5564C57.1566 30.517 57.0788 30.4949 56.9778 30.4949H51.5528C51.3304 30.4949 51.1338 30.426 50.966 30.287C50.7967 30.1467 50.7148 29.9511 50.7148 29.6927V29.0678C50.7148 28.8094 50.7995 28.6138 50.966 28.4735C51.1311 28.3333 51.3304 28.2656 51.5528 28.2656H58.1829V29.0678H51.9227C51.823 29.0678 51.7466 29.0875 51.692 29.1231C51.6374 29.16 51.6129 29.2339 51.6129 29.3397V29.4086C51.6129 29.5094 51.6456 29.582 51.7111 29.6288C51.7766 29.6755 51.8503 29.6977 51.9336 29.6977H57.3449C57.5674 29.6977 57.7639 29.7715 57.9331 29.9167C58.101 30.0606 58.1856 30.2599 58.1856 30.5047V31.1334C58.1856 31.3905 58.101 31.5874 57.9331 31.7264C57.7639 31.8667 57.5674 31.9355 57.3449 31.9355H50.7148V31.1309Z" fill="white"/>
</mask>
<g mask="url(#mask8_338_522)">
<path d="M24.4351 27.038H117.099V33.1611H24.4351V27.038Z" fill="white"/>
</g>
</g>
<mask id="mask9_338_522" style="mask-type:luminance" maskUnits="userSpaceOnUse" x="59" y="28" width="8" height="4">
<path d="M59.002 28.2583H66.5096V31.9405H59.002V28.2583Z" fill="white"/>
</mask>
<g mask="url(#mask9_338_522)">
<mask id="mask10_338_522" style="mask-type:luminance" maskUnits="userSpaceOnUse" x="59" y="28" width="8" height="4">
<path d="M65.4941 31.0374C65.5583 30.9735 65.591 30.8923 65.591 30.7926V29.4085C65.591 29.3077 65.5637 29.2265 65.5132 29.1625C65.4614 29.0997 65.3822 29.0678 65.2812 29.0678H60.2302C60.1183 29.0678 60.0391 29.0997 59.99 29.1625C59.9409 29.2265 59.919 29.3077 59.919 29.4085V30.7926C59.919 30.8923 59.9463 30.9735 60.0036 31.0374C60.061 31.1014 60.1292 31.1334 60.2138 31.1334H65.273C65.3577 31.1334 65.4314 31.1014 65.4969 31.0374M65.9595 28.321C66.0619 28.3603 66.152 28.412 66.2311 28.4809C66.3103 28.5498 66.373 28.6335 66.4194 28.7331C66.4659 28.834 66.4904 28.9447 66.4904 29.0653V31.1309C66.4904 31.2626 66.4659 31.3758 66.4194 31.4742C66.373 31.5726 66.3075 31.6563 66.2311 31.7239C66.1547 31.7928 66.0619 31.8445 65.9595 31.8789C65.8558 31.9134 65.7493 31.9331 65.6429 31.9331H59.8685C59.7566 31.9331 59.6502 31.9159 59.5492 31.8789C59.4482 31.842 59.3595 31.7928 59.2803 31.7239C59.2011 31.6563 59.1384 31.5726 59.092 31.4742C59.0456 31.3758 59.021 31.2601 59.021 31.1309V29.0678C59.021 28.9423 59.0456 28.8291 59.092 28.7257C59.1384 28.6236 59.2039 28.54 59.2803 28.4735C59.3567 28.4071 59.4482 28.353 59.5492 28.3185C59.6502 28.2841 59.7566 28.2668 59.8685 28.2668H65.6402C65.7466 28.2668 65.8503 28.2865 65.9568 28.3234" fill="white"/>
</mask>
<g mask="url(#mask10_338_522)">
<path d="M24.4351 27.038H117.099V33.1611H24.4351V27.038Z" fill="white"/>
</g>
</g>
<mask id="mask11_338_522" style="mask-type:luminance" maskUnits="userSpaceOnUse" x="67" y="28" width="8" height="4">
<path d="M67.3052 28.2583H74.8128V31.9405H67.3052V28.2583Z" fill="white"/>
</mask>
<g mask="url(#mask11_338_522)">
<mask id="mask12_338_522" style="mask-type:luminance" maskUnits="userSpaceOnUse" x="67" y="28" width="8" height="4">
<path d="M67.3286 28.2656H68.2348L73.8986 31.0497V28.2656H74.7967V31.9331H73.8905L68.2266 29.1502V31.9331H67.3286V28.2656Z" fill="white"/>
</mask>
<g mask="url(#mask12_338_522)">
<path d="M24.4351 27.038H117.099V33.1611H24.4351V27.038Z" fill="white"/>
</g>
</g>
<mask id="mask13_338_522" style="mask-type:luminance" maskUnits="userSpaceOnUse" x="75" y="28" width="8" height="4">
<path d="M75.4229 28.2583H82.9046V31.9405H75.4229V28.2583Z" fill="white"/>
</mask>
<g mask="url(#mask13_338_522)">
<mask id="mask14_338_522" style="mask-type:luminance" maskUnits="userSpaceOnUse" x="75" y="28" width="8" height="4">
<path d="M79.168 29.053L78.0434 30.2698H80.2912L79.168 29.053ZM76.5408 31.9331H75.4326L78.7231 28.2656H79.6143L82.902 31.9331H81.7938L80.9886 31.0473H77.346L76.5408 31.9331Z" fill="white"/>
</mask>
<g mask="url(#mask14_338_522)">
<path d="M24.4351 27.038H117.099V33.1611H24.4351V27.038Z" fill="white"/>
</g>
</g>
<mask id="mask15_338_522" style="mask-type:luminance" maskUnits="userSpaceOnUse" x="83" y="28" width="8" height="4">
<path d="M83.3555 28.2583H90.8372V31.9405H83.3555V28.2583Z" fill="white"/>
</mask>
<g mask="url(#mask15_338_522)">
<mask id="mask16_338_522" style="mask-type:luminance" maskUnits="userSpaceOnUse" x="83" y="28" width="8" height="4">
<path d="M90.8218 31.1309V31.9331H84.2026C84.0907 31.9331 83.9842 31.9159 83.8846 31.879C83.7836 31.842 83.6935 31.7928 83.6144 31.7239C83.5352 31.6563 83.4725 31.5726 83.426 31.4742C83.381 31.3758 83.3564 31.2601 83.3564 31.1309V28.2656H84.2545V30.7926C84.2545 30.8923 84.2872 30.9735 84.3527 31.0374C84.4169 31.1014 84.4906 31.1334 84.5752 31.1334L90.8218 31.1309Z" fill="white"/>
</mask>
<g mask="url(#mask16_338_522)">
<path d="M24.4351 27.038H117.099V33.1611H24.4351V27.038Z" fill="white"/>
</g>
</g>
<mask id="mask17_338_522" style="mask-type:luminance" maskUnits="userSpaceOnUse" x="91" y="28" width="9" height="4">
<path d="M91.6587 28.2583H99.1404V31.9405H91.6587V28.2583Z" fill="white"/>
</mask>
<g mask="url(#mask17_338_522)">
<mask id="mask18_338_522" style="mask-type:luminance" maskUnits="userSpaceOnUse" x="91" y="28" width="9" height="4">
<path d="M99.1282 31.1309V31.9331H91.6602V31.1309H94.9397V29.0678H91.6602V28.2656H99.1282V29.0678H95.8405V31.1334L99.1282 31.1309Z" fill="white"/>
</mask>
<g mask="url(#mask18_338_522)">
<path d="M24.4351 27.038H117.099V33.1611H24.4351V27.038Z" fill="white"/>
</g>
</g>
<mask id="mask19_338_522" style="mask-type:luminance" maskUnits="userSpaceOnUse" x="99" y="28" width="9" height="4">
<path d="M99.9614 28.2583H107.443V31.9405H99.9614V28.2583Z" fill="white"/>
</mask>
<g mask="url(#mask19_338_522)">
<mask id="mask20_338_522" style="mask-type:luminance" maskUnits="userSpaceOnUse" x="99" y="28" width="9" height="4">
<path d="M99.9683 31.1309H106.22C106.305 31.1309 106.379 31.1088 106.444 31.0621C106.508 31.0153 106.538 30.9439 106.538 30.8431V30.7754C106.538 30.6696 106.511 30.5958 106.459 30.5564C106.409 30.517 106.329 30.4949 106.228 30.4949H100.806C100.584 30.4949 100.387 30.426 100.219 30.287C100.05 30.1467 99.9683 29.9511 99.9683 29.6927V29.0678C99.9683 28.8094 100.053 28.6138 100.219 28.4735C100.385 28.3333 100.584 28.2656 100.806 28.2656H107.434V29.0678H101.175C101.074 29.0678 100.997 29.0875 100.943 29.1231C100.888 29.16 100.864 29.2339 100.864 29.3397V29.4086C100.864 29.5094 100.896 29.582 100.962 29.6288C101.027 29.6755 101.101 29.6977 101.186 29.6977H106.596C106.819 29.6977 107.015 29.7715 107.184 29.9167C107.353 30.0606 107.434 30.2599 107.434 30.5047V31.1334C107.434 31.3905 107.35 31.5874 107.184 31.7264C107.017 31.8667 106.819 31.9355 106.596 31.9355H99.9683V31.1309Z" fill="white"/>
</mask>
<g mask="url(#mask20_338_522)">
<path d="M24.4351 27.038H117.099V33.1611H24.4351V27.038Z" fill="white"/>
</g>
</g>
<mask id="mask21_338_522" style="mask-type:luminance" maskUnits="userSpaceOnUse" x="108" y="28" width="8" height="4">
<path d="M108.276 28.2656H115.744V29.0678H108.276V28.2656ZM108.276 29.0678H109.171V29.6952H108.276V29.0678ZM108.276 29.6952H115.741V30.4974H108.276V29.6952ZM108.276 30.4974H109.171V31.1309H108.276V30.4974ZM108.276 31.1309H115.741V31.9331H108.276V31.1309Z" fill="white"/>
</mask>
<g mask="url(#mask21_338_522)">
<path d="M24.4351 27.038H117.099V33.1611H24.4351V27.038Z" fill="white"/>
</g>
<mask id="mask22_338_522" style="mask-type:luminance" maskUnits="userSpaceOnUse" x="120" y="25" width="2" height="9">
<path d="M120.508 25.516H121.056V34H120.508V25.516Z" fill="white"/>
</mask>
<g mask="url(#mask22_338_522)">
<path d="M120.508 25.516H121.054V33.9975H120.508V25.516Z" fill="white"/>
</g>
<mask id="mask23_338_522" style="mask-type:luminance" maskUnits="userSpaceOnUse" x="126" y="28" width="8" height="4">
<path d="M126.127 28.2583H133.605V31.9405H126.127V28.2583Z" fill="white"/>
</mask>
<g mask="url(#mask23_338_522)">
<mask id="mask24_338_522" style="mask-type:luminance" maskUnits="userSpaceOnUse" x="126" y="28" width="8" height="4">
<path d="M127.029 29.0678V29.6952H132.383C132.461 29.6952 132.532 29.678 132.6 29.6411C132.669 29.6042 132.701 29.539 132.701 29.4381V29.3544C132.701 29.2486 132.671 29.1748 132.609 29.1305C132.546 29.0875 132.467 29.0678 132.375 29.0678H127.029ZM132.751 28.2656C132.857 28.2656 132.959 28.2841 133.066 28.321C133.172 28.3579 133.26 28.412 133.339 28.4809C133.417 28.5498 133.479 28.6335 133.526 28.7331C133.572 28.834 133.597 28.9447 133.597 29.0678V29.6952C133.597 29.8256 133.572 29.9413 133.526 30.0385C133.479 30.1369 133.414 30.2205 133.339 30.2894C133.262 30.3583 133.169 30.4088 133.066 30.4432C132.962 30.4777 132.857 30.4974 132.751 30.4974H127.029V31.9355H126.131V28.2656H132.751Z" fill="white"/>
</mask>
<g mask="url(#mask24_338_522)">
<path d="M124.771 27.038H184.804V33.1611H124.771V27.038Z" fill="white"/>
</g>
</g>
<mask id="mask25_338_522" style="mask-type:luminance" maskUnits="userSpaceOnUse" x="134" y="28" width="8" height="4">
<path d="M134.426 28.2583H141.934V31.9405H134.426V28.2583Z" fill="white"/>
</mask>
<g mask="url(#mask25_338_522)">
<mask id="mask26_338_522" style="mask-type:luminance" maskUnits="userSpaceOnUse" x="134" y="28" width="8" height="4">
<path d="M135.336 29.0678V29.6952H140.69C140.774 29.6952 140.848 29.678 140.912 29.646C140.978 29.614 141.008 29.5451 141.008 29.4455V29.3618C141.008 29.256 140.978 29.1797 140.917 29.1354C140.859 29.0924 140.78 29.0678 140.679 29.0678H135.336ZM141.057 28.2656C141.163 28.2656 141.27 28.2841 141.372 28.321C141.476 28.3579 141.566 28.412 141.645 28.4809C141.724 28.5498 141.787 28.6335 141.833 28.7331C141.878 28.834 141.903 28.9447 141.903 29.0678V29.6952C141.903 29.9117 141.843 30.0852 141.724 30.2181C141.604 30.3509 141.454 30.4334 141.275 30.4752L141.911 31.9355H140.999L140.287 30.4974H135.336V31.9355H134.438V28.2656H141.057Z" fill="white"/>
</mask>
<g mask="url(#mask26_338_522)">
<path d="M124.771 27.038H184.804V33.1611H124.771V27.038Z" fill="white"/>
</g>
</g>
<mask id="mask27_338_522" style="mask-type:luminance" maskUnits="userSpaceOnUse" x="142" y="28" width="9" height="4">
<path d="M142.73 28.2583H150.235V31.9405H142.73V28.2583Z" fill="white"/>
</mask>
<g mask="url(#mask27_338_522)">
<mask id="mask28_338_522" style="mask-type:luminance" maskUnits="userSpaceOnUse" x="142" y="28" width="9" height="4">
<path d="M149.217 31.0374C149.282 30.9735 149.312 30.8923 149.312 30.7926V29.4086C149.312 29.3077 149.285 29.2265 149.233 29.1625C149.181 29.0998 149.102 29.0678 149.001 29.0678H143.953C143.841 29.0678 143.762 29.0998 143.713 29.1625C143.665 29.2265 143.643 29.3077 143.643 29.4086V30.7926C143.643 30.8923 143.67 30.9735 143.726 31.0374C143.784 31.1014 143.852 31.1334 143.937 31.1334H148.996C149.08 31.1334 149.154 31.1014 149.22 31.0374M149.682 28.321C149.786 28.3604 149.875 28.412 149.954 28.4809C150.033 28.5498 150.096 28.6335 150.142 28.7331C150.189 28.834 150.213 28.9447 150.213 29.0653V31.1309C150.213 31.2626 150.189 31.3758 150.142 31.4742C150.096 31.5726 150.03 31.6563 149.954 31.7239C149.877 31.7928 149.786 31.8445 149.682 31.879C149.579 31.9134 149.472 31.9331 149.366 31.9331H143.591C143.479 31.9331 143.373 31.9159 143.272 31.879C143.172 31.842 143.082 31.7928 143.003 31.7239C142.924 31.6563 142.861 31.5726 142.815 31.4742C142.77 31.3758 142.745 31.2601 142.745 31.1309V29.0678C142.745 28.9423 142.77 28.8291 142.815 28.7257C142.861 28.6236 142.927 28.54 143.003 28.4735C143.079 28.4071 143.172 28.353 143.272 28.3185C143.373 28.2841 143.479 28.2656 143.591 28.2656H149.363C149.469 28.2656 149.576 28.2841 149.68 28.321" fill="white"/>
</mask>
<g mask="url(#mask28_338_522)">
<path d="M124.771 27.038H184.804V33.1611H124.771V27.038Z" fill="white"/>
</g>
</g>
<mask id="mask29_338_522" style="mask-type:luminance" maskUnits="userSpaceOnUse" x="151" y="28" width="8" height="4">
<path d="M151.051 28.2656H158.519V29.0678H151.051V28.2656ZM154.33 29.0678H155.228V31.9331H154.33V29.0678Z" fill="white"/>
</mask>
<g mask="url(#mask29_338_522)">
<path d="M124.771 27.038H184.804V33.1611H124.771V27.038Z" fill="white"/>
</g>
<mask id="mask30_338_522" style="mask-type:luminance" maskUnits="userSpaceOnUse" x="159" y="28" width="8" height="4">
<path d="M159.356 28.2656H166.825V29.0678H159.356V28.2656ZM159.356 29.0678H160.254V29.6952H159.356V29.0678ZM159.356 29.6952H166.825V30.4974H159.356V29.6952ZM159.356 30.4974H160.254V31.1309H159.356V30.4974ZM159.356 31.1309H166.825V31.9331H159.356V31.1309Z" fill="white"/>
</mask>
<g mask="url(#mask30_338_522)">
<path d="M124.771 27.038H184.804V33.1611H124.771V27.038Z" fill="white"/>
</g>
<mask id="mask31_338_522" style="mask-type:luminance" maskUnits="userSpaceOnUse" x="167" y="28" width="9" height="4">
<path d="M167.641 28.2583H175.148V31.9405H167.641V28.2583Z" fill="white"/>
</mask>
<g mask="url(#mask31_338_522)">
<mask id="mask32_338_522" style="mask-type:luminance" maskUnits="userSpaceOnUse" x="167" y="28" width="9" height="4">
<path d="M168.51 28.2656H174.282C174.389 28.2656 174.495 28.2841 174.599 28.321C174.702 28.3579 174.791 28.412 174.87 28.4809C174.949 28.5498 175.012 28.6335 175.059 28.7331C175.105 28.834 175.13 28.9447 175.13 29.0678V29.6189H174.232V29.4086C174.232 29.3077 174.204 29.2265 174.152 29.1625C174.101 29.0998 174.021 29.0678 173.92 29.0678H168.872C168.76 29.0678 168.678 29.0998 168.632 29.1625C168.587 29.2265 168.562 29.3077 168.562 29.4086V30.7926C168.562 30.8923 168.59 30.9735 168.646 31.0374C168.703 31.1014 168.771 31.1334 168.856 31.1334H173.915C174 31.1334 174.073 31.1014 174.139 31.0374C174.204 30.9735 174.234 30.8923 174.234 30.7926V30.5712H175.132V31.1309C175.132 31.2601 175.108 31.3758 175.061 31.4742C175.015 31.5726 174.949 31.6563 174.873 31.7239C174.797 31.7928 174.705 31.8445 174.601 31.879C174.498 31.9134 174.394 31.9331 174.285 31.9331H168.51C168.399 31.9331 168.292 31.9159 168.191 31.879C168.091 31.842 168.001 31.7928 167.925 31.7239C167.849 31.6563 167.783 31.5751 167.737 31.4742C167.69 31.3733 167.667 31.2601 167.667 31.1309V29.0678C167.667 28.9423 167.69 28.8266 167.737 28.7257C167.783 28.6261 167.849 28.54 167.925 28.4735C168.001 28.4071 168.091 28.353 168.191 28.3185C168.292 28.2841 168.399 28.2656 168.51 28.2656Z" fill="white"/>
</mask>
<g mask="url(#mask32_338_522)">
<path d="M124.771 27.038H184.804V33.1611H124.771V27.038Z" fill="white"/>
</g>
</g>
<mask id="mask33_338_522" style="mask-type:luminance" maskUnits="userSpaceOnUse" x="175" y="28" width="9" height="4">
<path d="M175.97 28.2656H183.438V29.0678H175.97V28.2656ZM179.25 29.0678H180.148V31.9331H179.25V29.0678Z" fill="white"/>
</mask>
<g mask="url(#mask33_338_522)">
<path d="M124.771 27.038H184.804V33.1611H124.771V27.038Z" fill="white"/>
</g>
<mask id="mask34_338_522" style="mask-type:luminance" maskUnits="userSpaceOnUse" x="188" y="25" width="1" height="9">
<path d="M188.233 25.516H188.779V34H188.233V25.516Z" fill="white"/>
</mask>
<g mask="url(#mask34_338_522)">
<path d="M188.233 25.516H188.779V33.9975H188.233V25.516Z" fill="white"/>
</g>
<mask id="mask35_338_522" style="mask-type:luminance" maskUnits="userSpaceOnUse" x="53" y="0" width="16" height="23">
<path d="M53.5483 0H68.6892V22.9275H53.5483V0Z" fill="white"/>
</mask>
<g mask="url(#mask35_338_522)">
<mask id="mask36_338_522" style="mask-type:luminance" maskUnits="userSpaceOnUse" x="53" y="0" width="16" height="23">
<path d="M66.8661 0.0222168H55.4156C54.4057 0.0222168 53.5923 0.73824 53.5923 1.64865V21.2618C53.5923 22.1722 54.4057 22.8882 55.4156 22.8882H66.8661C67.876 22.8882 68.6703 22.1722 68.6703 21.2618V1.64865C68.6731 0.73824 67.876 0.0222168 66.8661 0.0222168Z" fill="white"/>
</mask>
<g mask="url(#mask36_338_522)">
<path d="M52.2319 -1.20569H236.448V24.1147H52.2319V-1.20569Z" fill="white"/>
</g>
</g>
<mask id="mask37_338_522" style="mask-type:luminance" maskUnits="userSpaceOnUse" x="70" y="0" width="166" height="23">
<path d="M70.9248 0H235.131V22.9275H70.9248V0Z" fill="white"/>
</mask>
<g mask="url(#mask37_338_522)">
<mask id="mask38_338_522" style="mask-type:luminance" maskUnits="userSpaceOnUse" x="70" y="0" width="166" height="23">
<path d="M211.059 3.29476H233.225C234.253 3.29476 235.049 2.57874 235.049 1.65111C235.049 0.7407 234.25 0.0222168 233.225 0.0222168H199.163C195.184 0.0222168 191.923 2.96136 191.923 6.54762V16.3616C191.923 17.5463 192.285 18.656 192.903 19.6157H182.173C177.166 19.6157 173.111 15.9593 173.111 11.4454V1.64865C173.111 0.73824 172.315 0.0222168 171.305 0.0222168H159.406C159.214 0.0222168 159.031 0.0554344 158.86 0.104646C158.53 0.134172 158.182 0.242437 157.932 0.407294L143.433 9.81894C143.142 10.0096 142.696 10.1499 142.348 10.1499C141.979 10.1499 141.609 10.0096 141.261 9.81894L128.491 1.52562C127.114 0.615212 125.385 0.0898822 123.638 0.0898822H112.4C111.605 0.0898822 110.944 0.543855 110.671 1.19221C110.613 1.38045 110.588 1.56745 110.596 1.7483C110.528 1.923 110.484 2.11 110.484 2.31054V14.7868C110.484 15.0489 110.192 15.1178 110.136 15.1178C110.057 15.1178 109.981 15.1178 109.901 15.0489L89.176 1.9107C87.4482 0.669344 85.1963 0.0222168 82.9458 0.0222168H76.212C73.2995 0.0222168 70.9917 2.313 70.9917 4.84984V21.2618C70.9917 22.1722 71.7874 22.8882 72.7959 22.8882C73.825 22.8882 74.6206 22.1722 74.6206 21.2618V9.48676C74.6206 9.24194 74.9113 9.17304 75.0478 9.17304C75.127 9.17304 75.202 9.17304 75.2621 9.24194L94.8453 20.8595C96.6495 22.1008 98.9 22.8193 101.133 22.8193H108.467C111.224 22.8193 114.115 20.6675 114.115 18.0594V4.8769L127.851 13.9305C128.645 14.4559 129.074 15.2432 129.074 16.0995V21.2618C129.074 22.1722 129.868 22.8882 130.897 22.8882H142.348C143.356 22.8882 144.152 22.1722 144.152 21.2618V15.0489C144.152 13.8075 144.81 12.9488 145.529 12.4948L157.602 4.61485V11.4454C157.602 17.7259 163.328 22.8882 170.275 22.8882H233.225C234.253 22.8882 235.049 22.1722 235.049 21.2618C235.049 20.3341 234.253 19.6181 233.225 19.6181H211.059C209.1 19.6181 207.428 18.1824 207.428 16.364V13.0915H233.225C234.253 13.0915 235.049 12.3755 235.049 11.4478C235.049 10.5374 234.253 9.8214 233.225 9.8214H207.431V6.54762C207.431 4.72927 209.1 3.29476 211.061 3.29476" fill="white"/>
</mask>
<g mask="url(#mask38_338_522)">
<path d="M52.2319 -1.20569H236.448V24.1147H52.2319V-1.20569Z" fill="white"/>
</g>
</g>
<mask id="mask39_338_522" style="mask-type:luminance" maskUnits="userSpaceOnUse" x="238" y="0" width="45" height="23">
<path d="M238.44 0.0209961H283V22.9768H238.44V0.0209961Z" fill="white"/>
</mask>
<g mask="url(#mask39_338_522)">
<mask id="mask40_338_522" style="mask-type:luminance" maskUnits="userSpaceOnUse" x="238" y="0" width="45" height="23">
<path d="M258.431 19.6144H253.499V3.29477H258.431C263.439 3.29477 267.495 6.94993 267.495 11.4478C267.495 15.9617 263.439 19.6169 258.431 19.6169M270.328 0.0209961H240.244C239.237 0.0209961 238.44 0.738249 238.44 1.64866V21.2618C238.44 22.171 239.237 22.8882 240.244 22.8882H270.328C277.352 22.8882 283 17.726 283 11.4454C283 5.18325 277.352 0.0209961 270.328 0.0209961Z" fill="white"/>
</mask>
<g mask="url(#mask40_338_522)">
<path d="M238.44 0.0209961H283.029V22.8882H238.44V0.0209961Z" fill="white"/>
</g>
</g>
<mask id="mask41_338_522" style="mask-type:luminance" maskUnits="userSpaceOnUse" x="193" y="28" width="9" height="4">
<path d="M193.776 28.2583H201.337V31.9405H193.776V28.2583Z" fill="white"/>
</mask>
<g mask="url(#mask41_338_522)">
<mask id="mask42_338_522" style="mask-type:luminance" maskUnits="userSpaceOnUse" x="193" y="28" width="9" height="4">
<path d="M201.329 28.2656V31.9331H200.431V29.1576L197.551 31.5554L194.683 29.1576V31.9331H193.785V28.2656H194.808L197.551 30.5786L200.303 28.2656H201.329Z" fill="white"/>
</mask>
<g mask="url(#mask42_338_522)">
<path d="M192.424 27.038H258.347V33.1611H192.424V27.038Z" fill="white"/>
</g>
</g>
<mask id="mask43_338_522" style="mask-type:luminance" maskUnits="userSpaceOnUse" x="201" y="28" width="9" height="4">
<path d="M201.921 28.2583H209.402V31.9405H201.921V28.2583Z" fill="white"/>
</mask>
<g mask="url(#mask43_338_522)">
<mask id="mask44_338_522" style="mask-type:luminance" maskUnits="userSpaceOnUse" x="201" y="28" width="9" height="4">
<path d="M205.657 29.053L204.532 30.2698H206.78L205.657 29.053ZM203.03 31.9331H201.923L205.213 28.2656H206.103L209.391 31.9331H208.283L207.477 31.0473H203.835L203.03 31.9331Z" fill="white"/>
</mask>
<g mask="url(#mask44_338_522)">
<path d="M192.424 27.038H258.347V33.1611H192.424V27.038Z" fill="white"/>
</g>
</g>
<mask id="mask45_338_522" style="mask-type:luminance" maskUnits="userSpaceOnUse" x="210" y="28" width="8" height="4">
<path d="M210.012 28.2583H217.519V31.9405H210.012V28.2583Z" fill="white"/>
</mask>
<g mask="url(#mask45_338_522)">
<mask id="mask46_338_522" style="mask-type:luminance" maskUnits="userSpaceOnUse" x="210" y="28" width="8" height="4">
<path d="M217.495 31.1309V31.9331H210.029V31.1309H213.309V29.0678H210.029V28.2656H217.495V29.0678H214.207V31.1334L217.495 31.1309Z" fill="white"/>
</mask>
<g mask="url(#mask46_338_522)">
<path d="M192.424 27.038H258.347V33.1611H192.424V27.038Z" fill="white"/>
</g>
</g>
<mask id="mask47_338_522" style="mask-type:luminance" maskUnits="userSpaceOnUse" x="218" y="28" width="8" height="4">
<path d="M218.315 28.2583H225.823V31.9405H218.315V28.2583Z" fill="white"/>
</mask>
<g mask="url(#mask47_338_522)">
<mask id="mask48_338_522" style="mask-type:luminance" maskUnits="userSpaceOnUse" x="218" y="28" width="8" height="4">
<path d="M218.337 28.2656H219.243L224.907 31.0497V28.2656H225.805V31.9331H224.899L219.232 29.1502V31.9331H218.334L218.337 28.2656Z" fill="white"/>
</mask>
<g mask="url(#mask48_338_522)">
<path d="M192.424 27.038H258.347V33.1611H192.424V27.038Z" fill="white"/>
</g>
</g>
<mask id="mask49_338_522" style="mask-type:luminance" maskUnits="userSpaceOnUse" x="226" y="28" width="9" height="4">
<path d="M226.643 28.2656H234.111V29.0678H226.643V28.2656ZM229.923 29.0678H230.821V31.9331H229.923V29.0678Z" fill="white"/>
</mask>
<g mask="url(#mask49_338_522)">
<path d="M192.424 27.038H258.347V33.1611H192.424V27.038Z" fill="white"/>
</g>
<mask id="mask50_338_522" style="mask-type:luminance" maskUnits="userSpaceOnUse" x="233" y="28" width="8" height="4">
<path d="M233.092 28.2583H240.574V31.9405H233.092V28.2583Z" fill="white"/>
</mask>
<g mask="url(#mask50_338_522)">
<mask id="mask51_338_522" style="mask-type:luminance" maskUnits="userSpaceOnUse" x="233" y="28" width="8" height="4">
<path d="M236.835 29.053L235.712 30.2698H237.96L236.835 29.053ZM234.209 31.9331H233.101L236.392 28.2656H237.281L240.569 31.9331H239.462L238.656 31.0473H235.014L234.209 31.9331Z" fill="white"/>
</mask>
<g mask="url(#mask51_338_522)">
<path d="M192.424 27.038H258.347V33.1611H192.424V27.038Z" fill="white"/>
</g>
</g>
<mask id="mask52_338_522" style="mask-type:luminance" maskUnits="userSpaceOnUse" x="241" y="28" width="8" height="4">
<path d="M241.183 28.2583H248.691V31.9405H241.183V28.2583Z" fill="white"/>
</mask>
<g mask="url(#mask52_338_522)">
<mask id="mask53_338_522" style="mask-type:luminance" maskUnits="userSpaceOnUse" x="241" y="28" width="8" height="4">
<path d="M248.674 31.1309V31.9331H241.206V31.1309H244.488V29.0678H241.206V28.2656H248.674V29.0678H245.386V31.1334L248.674 31.1309Z" fill="white"/>
</mask>
<g mask="url(#mask53_338_522)">
<path d="M192.424 27.038H258.347V33.1611H192.424V27.038Z" fill="white"/>
</g>
</g>
<mask id="mask54_338_522" style="mask-type:luminance" maskUnits="userSpaceOnUse" x="249" y="28" width="8" height="4">
<path d="M249.486 28.2583H256.994V31.9405H249.486V28.2583Z" fill="white"/>
</mask>
<g mask="url(#mask54_338_522)">
<mask id="mask55_338_522" style="mask-type:luminance" maskUnits="userSpaceOnUse" x="249" y="28" width="8" height="4">
<path d="M249.513 28.2656H250.419L256.083 31.0497V28.2656H256.981V31.9331H256.075L250.411 29.1502V31.9331H249.513V28.2656Z" fill="white"/>
</mask>
<g mask="url(#mask55_338_522)">
<path d="M192.424 27.038H258.347V33.1611H192.424V27.038Z" fill="white"/>
</g>
</g>
</svg>
