<svg width="26" height="29" viewBox="0 0 26 29" fill="none" xmlns="http://www.w3.org/2000/svg">
<g filter="url(#filter0_d_36_531)">
<path d="M18.9501 10.0985C18.9626 10.275 18.9626 10.4515 18.9626 10.6297C18.9626 16.0572 14.7541 22.3169 7.05885 22.3169V22.3136C4.78565 22.3169 2.55967 21.6776 0.645996 20.4721C0.976546 20.5112 1.30874 20.5308 1.64177 20.5316C3.52562 20.5332 5.35561 19.9126 6.83766 18.7698C5.04743 18.7364 3.47756 17.5904 2.92915 15.9173C3.55626 16.0361 4.20244 16.0117 4.81796 15.8466C2.86619 15.4594 1.462 13.7757 1.462 11.8204C1.462 11.8025 1.462 11.7855 1.462 11.7683C2.04355 12.0863 2.6947 12.2629 3.36076 12.2824C1.52247 11.0762 0.955828 8.67514 2.06592 6.7979C4.19001 9.36407 7.32397 10.9241 10.6882 11.0892C10.351 9.66257 10.8117 8.1676 11.8986 7.16473C13.5835 5.60958 16.2337 5.68929 17.8177 7.34286C18.7546 7.16147 19.6526 6.82393 20.4744 6.34567C20.1621 7.2965 19.5084 8.10416 18.6353 8.61739C19.4646 8.52142 20.2748 8.30344 21.0377 7.97077C20.476 8.79715 19.7685 9.51698 18.9501 10.0985Z" fill="#9D9B9B"/>
</g>
<defs>
<filter id="filter0_d_36_531" x="0.645996" y="6.04858" width="21.4112" height="17.2879" filterUnits="userSpaceOnUse" color-interpolation-filters="sRGB">
<feFlood flood-opacity="0" result="BackgroundImageFix"/>
<feColorMatrix in="SourceAlpha" type="matrix" values="0 0 0 0 0 0 0 0 0 0 0 0 0 0 0 0 0 0 127 0" result="hardAlpha"/>
<feOffset dx="1.01959" dy="1.01959"/>
<feComposite in2="hardAlpha" operator="out"/>
<feColorMatrix type="matrix" values="0 0 0 0 0 0 0 0 0 0 0 0 0 0 0 0 0 0 0.1 0"/>
<feBlend mode="normal" in2="BackgroundImageFix" result="effect1_dropShadow_36_531"/>
<feBlend mode="normal" in="SourceGraphic" in2="effect1_dropShadow_36_531" result="shape"/>
</filter>
</defs>
</svg>
