<svg width="230" height="66" viewBox="0 0 230 66" fill="none" xmlns="http://www.w3.org/2000/svg">
<mask id="mask0_302_90" style="mask-type:luminance" maskUnits="userSpaceOnUse" x="13" y="22" width="37" height="24">
<path d="M13 22H49.0622V45.0769H13V22Z" fill="white"/>
</mask>
<g mask="url(#mask0_302_90)">
<mask id="mask1_302_90" style="mask-type:luminance" maskUnits="userSpaceOnUse" x="13" y="22" width="37" height="24">
<path d="M47.7901 22.0734C47.4877 22.0734 47.1276 22.1962 46.8676 22.5273L37.1366 34.9167C36.8884 35.3017 36.3648 35.5144 35.8529 35.5144C35.2328 35.5144 34.6668 35.2523 34.3103 34.7234L25.716 23.7767C24.9018 22.6711 23.7157 22.0734 22.479 22.0734H14.3448C13.8377 22.0734 13.3682 22.4584 13.1623 23.0561C12.9575 23.7063 13.0658 24.4224 13.4258 24.8973L27.987 43.372C28.813 44.4087 29.8873 45.005 31.0733 45.005C32.2594 45.005 33.3337 44.4087 34.1597 43.372L48.6702 24.8973C49.1821 24.2306 49.1821 23.179 48.6702 22.5273C48.4643 22.1962 48.1043 22.0734 47.7901 22.0734Z" fill="white"/>
</mask>
<g mask="url(#mask1_302_90)">
<path d="M11.1196 19.6061H215.967V47.471H11.1196V19.6061Z" fill="#231F20"/>
</g>
</g>
<mask id="mask2_302_90" style="mask-type:luminance" maskUnits="userSpaceOnUse" x="51" y="22" width="11" height="24">
<path d="M51.0459 22H61.8182V45.0769H51.0459V22Z" fill="white"/>
</mask>
<g mask="url(#mask2_302_90)">
<mask id="mask3_302_90" style="mask-type:luminance" maskUnits="userSpaceOnUse" x="51" y="22" width="11" height="24">
<path d="M60.5334 22.0734H52.4039C51.6861 22.0734 51.1084 22.794 51.1084 23.7063V43.372C51.1084 44.2844 51.6861 45.005 52.4039 45.005H60.5334C61.25 45.005 61.816 44.2844 61.816 43.372V23.7063C61.816 22.794 61.25 22.0734 60.5334 22.0734Z" fill="white"/>
</mask>
<g mask="url(#mask3_302_90)">
<path d="M11.1196 19.6061H215.967V47.471H11.1196V19.6061Z" fill="#231F20"/>
</g>
</g>
<mask id="mask4_302_90" style="mask-type:luminance" maskUnits="userSpaceOnUse" x="63" y="22" width="117" height="24">
<path d="M63.4434 22H179.974V45.0769H63.4434V22Z" fill="white"/>
</mask>
<g mask="url(#mask4_302_90)">
<mask id="mask5_302_90" style="mask-type:luminance" maskUnits="userSpaceOnUse" x="63" y="22" width="117" height="24">
<path d="M162.912 25.3557H178.647C179.377 25.3557 179.943 24.6351 179.943 23.7063C179.943 22.794 179.377 22.0734 178.647 22.0734H154.465C151.638 22.0734 149.324 25.0202 149.324 28.6186V38.4612C149.324 39.6447 149.579 40.7608 150.018 41.7226H142.404C138.848 41.7226 135.968 38.0552 135.968 33.5294V23.7063C135.968 22.794 135.402 22.0734 134.689 22.0734H126.237C126.101 22.0734 125.97 22.1078 125.85 22.1573C125.617 22.1872 125.368 22.2951 125.191 22.4584L114.897 31.895C114.692 32.0882 114.375 32.2261 114.126 32.2261C113.866 32.2261 113.603 32.0882 113.355 31.895L104.287 23.5835C103.309 22.6711 102.081 22.1468 100.841 22.1468H92.8619C92.296 22.1468 91.8265 22.6007 91.637 23.2524C91.5947 23.4411 91.5782 23.6284 91.5829 23.8112C91.5359 23.988 91.5053 24.1707 91.5053 24.373V36.8807C91.5053 37.1429 91.2993 37.2163 91.257 37.2163C91.2029 37.2163 91.144 37.2163 91.0899 37.1474L76.3735 23.9685C75.1486 22.725 73.5471 22.0734 71.9504 22.0734H67.1708C65.1034 22.0734 63.4644 24.373 63.4644 26.9153V43.372C63.4644 44.2844 64.0303 45.005 64.7469 45.005C65.4764 45.005 66.0424 44.2844 66.0424 43.372V31.5654C66.0424 31.3182 66.2471 31.2493 66.3448 31.2493C66.3989 31.2493 66.4531 31.2493 66.4954 31.3182L80.3976 42.9675C81.6814 44.211 83.2781 44.9316 84.8642 44.9316H90.0744C92.0324 44.9316 94.0833 42.7743 94.0833 40.1586V26.9407L103.833 36.0178C104.399 36.5451 104.701 37.3346 104.701 38.1945V43.372C104.701 44.2844 105.267 45.005 105.997 45.005H114.126C114.843 45.005 115.409 44.2844 115.409 43.372V37.1429C115.409 35.8994 115.879 35.035 116.387 34.5811L124.958 26.6786V33.5294C124.958 39.8275 129.024 45.005 133.955 45.005H178.647C179.377 45.005 179.943 44.2844 179.943 43.372C179.943 42.4432 179.377 41.7226 178.647 41.7226H162.912C161.52 41.7226 160.334 40.2874 160.334 38.4612V35.1774H178.647C179.377 35.1774 179.943 34.4568 179.943 33.5294C179.943 32.6171 179.377 31.901 178.647 31.901H160.334V28.6186C160.334 26.7924 161.52 25.3557 162.912 25.3557Z" fill="white"/>
</mask>
<g mask="url(#mask5_302_90)">
<path d="M11.1196 19.6061H215.967V47.471H11.1196V19.6061Z" fill="#231F20"/>
</g>
</g>
<mask id="mask6_302_90" style="mask-type:luminance" maskUnits="userSpaceOnUse" x="182" y="22" width="32" height="24">
<path d="M182.282 22H214V45.0769H182.282V22Z" fill="white"/>
</mask>
<g mask="url(#mask6_302_90)">
<mask id="mask7_302_90" style="mask-type:luminance" maskUnits="userSpaceOnUse" x="182" y="22" width="32" height="24">
<path d="M196.547 41.7226H193.046V25.3557H196.547C200.103 25.3557 202.983 29.0231 202.983 33.5294C202.983 38.0552 200.103 41.7226 196.547 41.7226ZM204.991 22.0734H183.633C182.917 22.0734 182.351 22.794 182.351 23.7063V43.372C182.351 44.2844 182.917 45.005 183.633 45.005H204.991C209.981 45.005 213.989 39.8275 213.989 33.5294C213.989 27.2508 209.981 22.0734 204.991 22.0734Z" fill="white"/>
</mask>
<g mask="url(#mask7_302_90)">
<path d="M11.1201 19.6061H215.968V47.471H11.1201V19.6061Z" fill="#231F20"/>
</g>
</g>
</svg>
